<svg width="1665" height="866" xmlns="http://www.w3.org/2000/svg"><g><path d="M-121,-15L-122,1012L-88,399Z" fill="#bcefbe" stroke="#bcefbe"/><path d="M-121,-15L-88,399L-69,172Z" fill="#eefee8" stroke="#eefee8"/><path d="M-121,-15L-69,172L-47,19Z" fill="#f7fef4" stroke="#f7fef4"/><path d="M-121,-15L-47,19L81,-59Z" fill="#f8fcf6" stroke="#f8fcf6"/><path d="M81,-59L-47,19L86,78Z" fill="#f3fbf1" stroke="#f3fbf1"/><path d="M81,-59L86,78L237,57Z" fill="#ecf9e9" stroke="#ecf9e9"/><path d="M81,-59L237,57L269,-32Z" fill="#eaf7e8" stroke="#eaf7e8"/><path d="M81,-59L269,-32L378,-105Z" fill="#e7f6e5" stroke="#e7f6e5"/><path d="M269,-32L237,57L345,43Z" fill="#e3f5e0" stroke="#e3f5e0"/><path d="M269,-32L345,43L378,-105Z" fill="#e2f4df" stroke="#e2f4df"/><path d="M378,-105L345,43L523,35Z" fill="#ddf2d9" stroke="#ddf2d9"/><path d="M378,-105L523,35L549,-23Z" fill="#d7efd4" stroke="#d7efd4"/><path d="M378,-105L549,-23L702,-86Z" fill="#d2edd0" stroke="#d2edd0"/><path d="M378,-105L702,-86L857,-127Z" fill="#c9e9c8" stroke="#c9e9c8"/><path d="M549,-23L523,35L631,16Z" fill="#d0eccd" stroke="#d0eccd"/><path d="M549,-23L631,16L702,-86Z" fill="#cbeaca" stroke="#cbeaca"/><path d="M702,-86L631,16L820,116Z" fill="#c2e6c2" stroke="#c2e6c2"/><path d="M702,-86L820,116L857,-127Z" fill="#bde3be" stroke="#bde3be"/><path d="M857,-127L820,116L998,94Z" fill="#b2deb5" stroke="#b2deb5"/><path d="M857,-127L998,94L969,-132Z" fill="#afdab4" stroke="#afdab4"/><path d="M969,-132L998,94L1086,-72Z" fill="#a8d5b0" stroke="#a8d5b0"/><path d="M969,-132L1086,-72L1564,-111Z" fill="#95c8a5" stroke="#95c8a5"/><path d="M1086,-72L998,94L1072,61Z" fill="#a2d3ab" stroke="#a2d3ab"/><path d="M1086,-72L1072,61L1237,49Z" fill="#9ccda8" stroke="#9ccda8"/><path d="M1086,-72L1237,49L1255,-20Z" fill="#97c9a6" stroke="#97c9a6"/><path d="M1086,-72L1255,-20L1564,-111Z" fill="#8cc29f" stroke="#8cc29f"/><path d="M1255,-20L1237,49L1370,77Z" fill="#8bc39c" stroke="#8bc39c"/><path d="M1255,-20L1370,77L1453,-38Z" fill="#86be9b" stroke="#86be9b"/><path d="M1255,-20L1453,-38L1564,-111Z" fill="#80b998" stroke="#80b998"/><path d="M1453,-38L1370,77L1595,37Z" fill="#7eb693" stroke="#7eb693"/><path d="M1453,-38L1595,37L1564,-111Z" fill="#80b191" stroke="#80b191"/><path d="M1564,-111L1595,37L1711,-44Z" fill="#80ac8c" stroke="#80ac8c"/><path d="M1564,-111L1711,-44L1922,-64Z" fill="#80a486" stroke="#80a486"/><path d="M1711,-44L1595,37L1712,101Z" fill="#7da886" stroke="#7da886"/><path d="M1711,-44L1712,101L1932,24Z" fill="#7ea180" stroke="#7ea180"/><path d="M1711,-44L1932,24L1922,-64Z" fill="#809c80" stroke="#809c80"/><path d="M-47,19L-69,172L86,78Z" fill="#f0fcec" stroke="#f0fcec"/><path d="M86,78L-69,172L17,204Z" fill="#eafbe5" stroke="#eafbe5"/><path d="M86,78L17,204L215,190Z" fill="#e4f9de" stroke="#e4f9de"/><path d="M86,78L215,190L237,57Z" fill="#e3f7de" stroke="#e3f7de"/><path d="M237,57L215,190L347,184Z" fill="#dbf5d5" stroke="#dbf5d5"/><path d="M237,57L347,184L345,43Z" fill="#dcf4d7" stroke="#dcf4d7"/><path d="M345,43L347,184L523,35Z" fill="#d7f2d1" stroke="#d7f2d1"/><path d="M523,35L347,184L493,279Z" fill="#cdf0c6" stroke="#cdf0c6"/><path d="M523,35L493,279L671,213Z" fill="#c3ecbe" stroke="#c3ecbe"/><path d="M523,35L671,213L631,16Z" fill="#c6eac3" stroke="#c6eac3"/><path d="M631,16L671,213L820,116Z" fill="#bbe7b9" stroke="#bbe7b9"/><path d="M820,116L671,213L852,284Z" fill="#afe4ab" stroke="#afe4ab"/><path d="M820,116L852,284L915,245Z" fill="#a6e0a4" stroke="#a6e0a4"/><path d="M820,116L915,245L998,94Z" fill="#a7dca8" stroke="#a7dca8"/><path d="M998,94L915,245L1084,212Z" fill="#9cd69f" stroke="#9cd69f"/><path d="M998,94L1084,212L1072,61Z" fill="#9bd3a2" stroke="#9bd3a2"/><path d="M1072,61L1084,212L1226,167Z" fill="#92ce9b" stroke="#92ce9b"/><path d="M1072,61L1226,167L1237,49Z" fill="#91ca9d" stroke="#91ca9d"/><path d="M1237,49L1226,167L1370,77Z" fill="#87c397" stroke="#87c397"/><path d="M1370,77L1226,167L1413,179Z" fill="#7ebf90" stroke="#7ebf90"/><path d="M1370,77L1413,179L1595,37Z" fill="#78b78c" stroke="#78b78c"/><path d="M1595,37L1413,179L1574,242Z" fill="#74b283" stroke="#74b283"/><path d="M1595,37L1574,242L1712,101Z" fill="#76ab7f" stroke="#76ab7f"/><path d="M1712,101L1574,242L1708,272Z" fill="#70a976" stroke="#70a976"/><path d="M1712,101L1708,272L1888,263Z" fill="#70a26f" stroke="#70a26f"/><path d="M1712,101L1888,263L1932,24Z" fill="#769c73" stroke="#769c73"/><path d="M1932,24L1888,263L1862,547Z" fill="#639661" stroke="#639661"/><path d="M1932,24L1862,547L1859,670Z" fill="#49904a" stroke="#49904a"/><path d="M1932,24L1859,670L1862,845Z" fill="#33833c" stroke="#33833c"/><path d="M1932,24L1862,845L1858,989Z" fill="#1c722d" stroke="#1c722d"/><path d="M-69,172L-88,399L17,204Z" fill="#e1fbdb" stroke="#e1fbdb"/><path d="M17,204L-88,399L53,318Z" fill="#d5f7d1" stroke="#d5f7d1"/><path d="M17,204L53,318L215,190Z" fill="#dcf8d6" stroke="#dcf8d6"/><path d="M215,190L53,318L186,380Z" fill="#cdf4c8" stroke="#cdf4c8"/><path d="M215,190L186,380L347,184Z" fill="#cff4c9" stroke="#cff4c9"/><path d="M347,184L186,380L332,434Z" fill="#beefb9" stroke="#beefb9"/><path d="M347,184L332,434L493,279Z" fill="#beeeb8" stroke="#beeeb8"/><path d="M493,279L332,434L555,424Z" fill="#a9e8a6" stroke="#a9e8a6"/><path d="M493,279L555,424L671,213Z" fill="#aee7aa" stroke="#aee7aa"/><path d="M671,213L555,424L701,418Z" fill="#9fe39d" stroke="#9fe39d"/><path d="M671,213L701,418L772,387Z" fill="#9be09a" stroke="#9be09a"/><path d="M671,213L772,387L852,284Z" fill="#a0e09e" stroke="#a0e09e"/><path d="M852,284L772,387L986,413Z" fill="#8ad88c" stroke="#8ad88c"/><path d="M852,284L986,413L915,245Z" fill="#8ed791" stroke="#8ed791"/><path d="M915,245L986,413L1084,212Z" fill="#8bd390" stroke="#8bd390"/><path d="M1084,212L986,413L1161,361Z" fill="#7bcc85" stroke="#7bcc85"/><path d="M1084,212L1161,361L1226,167Z" fill="#84ca8e" stroke="#84ca8e"/><path d="M1226,167L1161,361L1296,373Z" fill="#72c380" stroke="#72c380"/><path d="M1226,167L1296,373L1413,179Z" fill="#76c086" stroke="#76c086"/><path d="M1413,179L1296,373L1442,379Z" fill="#62b876" stroke="#62b876"/><path d="M1413,179L1442,379L1574,242Z" fill="#66b377" stroke="#66b377"/><path d="M1574,242L1442,379L1594,356Z" fill="#5aac6a" stroke="#5aac6a"/><path d="M1574,242L1594,356L1708,272Z" fill="#61a86b" stroke="#61a86b"/><path d="M1708,272L1594,356L1698,346Z" fill="#5aa463" stroke="#5aa463"/><path d="M1708,272L1698,346L1864,347Z" fill="#5b9d5e" stroke="#5b9d5e"/><path d="M1708,272L1864,347L1888,263Z" fill="#609a5f" stroke="#609a5f"/><path d="M1888,263L1864,347L1862,547Z" fill="#4e934f" stroke="#4e934f"/><path d="M-88,399L-122,1012L-87,656Z" fill="#88cc9f" stroke="#88cc9f"/><path d="M-88,399L-87,656L-34,538Z" fill="#aae3b2" stroke="#aae3b2"/><path d="M-88,399L-34,538L53,318Z" fill="#c0f2bf" stroke="#c0f2bf"/><path d="M53,318L-34,538L113,538Z" fill="#b2ebb4" stroke="#b2ebb4"/><path d="M53,318L113,538L186,380Z" fill="#b9efb7" stroke="#b9efb7"/><path d="M186,380L113,538L186,502Z" fill="#a9e7ab" stroke="#a9e7ab"/><path d="M186,380L186,502L332,434Z" fill="#acebab" stroke="#acebab"/><path d="M332,434L186,502L334,530Z" fill="#9ee2a1" stroke="#9ee2a1"/><path d="M332,434L334,530L556,472Z" fill="#99e09b" stroke="#99e09b"/><path d="M332,434L556,472L555,424Z" fill="#9ae39a" stroke="#9ae39a"/><path d="M555,424L556,472L701,418Z" fill="#91df92" stroke="#91df92"/><path d="M701,418L556,472L629,559Z" fill="#85d78a" stroke="#85d78a"/><path d="M701,418L629,559L865,550Z" fill="#77cf7f" stroke="#77cf7f"/><path d="M701,418L865,550L772,387Z" fill="#80d683" stroke="#80d683"/><path d="M772,387L865,550L947,498Z" fill="#72ce7a" stroke="#72ce7a"/><path d="M772,387L947,498L986,413Z" fill="#79d37e" stroke="#79d37e"/><path d="M986,413L947,498L1106,528Z" fill="#63c371" stroke="#63c371"/><path d="M986,413L1106,528L1161,361Z" fill="#67c673" stroke="#67c673"/><path d="M1161,361L1106,528L1258,494Z" fill="#57bb6a" stroke="#57bb6a"/><path d="M1161,361L1258,494L1296,373Z" fill="#5cbc6e" stroke="#5cbc6e"/><path d="M1296,373L1258,494L1442,379Z" fill="#52b667" stroke="#52b667"/><path d="M1442,379L1258,494L1464,534Z" fill="#41ac5c" stroke="#41ac5c"/><path d="M1442,379L1464,534L1555,469Z" fill="#3fa657" stroke="#3fa657"/><path d="M1442,379L1555,469L1594,356Z" fill="#4ba95e" stroke="#4ba95e"/><path d="M1594,356L1555,469L1684,499Z" fill="#43a053" stroke="#43a053"/><path d="M1594,356L1684,499L1698,346Z" fill="#4ca057" stroke="#4ca057"/><path d="M1698,346L1684,499L1864,347Z" fill="#4c9a52" stroke="#4c9a52"/><path d="M1864,347L1684,499L1862,547Z" fill="#3e9044" stroke="#3e9044"/><path d="M-34,538L-87,656L97,669Z" fill="#92d4a2" stroke="#92d4a2"/><path d="M-34,538L97,669L113,538Z" fill="#97d8a3" stroke="#97d8a3"/><path d="M113,538L97,669L271,684Z" fill="#86ce96" stroke="#86ce96"/><path d="M113,538L271,684L186,502Z" fill="#91d79b" stroke="#91d79b"/><path d="M186,502L271,684L334,530Z" fill="#8dd597" stroke="#8dd597"/><path d="M334,530L271,684L418,712Z" fill="#78c889" stroke="#78c889"/><path d="M334,530L418,712L556,472Z" fill="#82d18c" stroke="#82d18c"/><path d="M556,472L418,712L564,709Z" fill="#6ec57e" stroke="#6ec57e"/><path d="M556,472L564,709L629,559Z" fill="#73ca80" stroke="#73ca80"/><path d="M629,559L564,709L671,732Z" fill="#5dbb71" stroke="#5dbb71"/><path d="M629,559L671,732L800,682Z" fill="#58b96d" stroke="#58b96d"/><path d="M629,559L800,682L865,550Z" fill="#60c070" stroke="#60c070"/><path d="M865,550L800,682L923,631Z" fill="#52b866" stroke="#52b866"/><path d="M865,550L923,631L947,498Z" fill="#5bbe6c" stroke="#5bbe6c"/><path d="M947,498L923,631L1106,528Z" fill="#55ba68" stroke="#55ba68"/><path d="M1106,528L923,631L1162,655Z" fill="#42ac5d" stroke="#42ac5d"/><path d="M1106,528L1162,655L1258,494Z" fill="#42ac5d" stroke="#42ac5d"/><path d="M1258,494L1162,655L1266,658Z" fill="#33a253" stroke="#33a253"/><path d="M1258,494L1266,658L1431,625Z" fill="#2c9d50" stroke="#2c9d50"/><path d="M1258,494L1431,625L1464,534Z" fill="#2f9f51" stroke="#2f9f51"/><path d="M1464,534L1431,625L1596,660Z" fill="#1e8f43" stroke="#1e8f43"/><path d="M1464,534L1596,660L1555,469Z" fill="#2a9448" stroke="#2a9448"/><path d="M1555,469L1596,660L1684,499Z" fill="#2d9145" stroke="#2d9145"/><path d="M1684,499L1596,660L1756,616Z" fill="#22843a" stroke="#22843a"/><path d="M1684,499L1756,616L1862,547Z" fill="#2a843a" stroke="#2a843a"/><path d="M1862,547L1756,616L1859,670Z" fill="#1d772f" stroke="#1d772f"/><path d="M-87,656L-122,1012L-55,792Z" fill="#7cb68c" stroke="#7cb68c"/><path d="M-87,656L-55,792L97,669Z" fill="#80c797" stroke="#80c797"/><path d="M97,669L-55,792L39,836Z" fill="#75bd8c" stroke="#75bd8c"/><path d="M97,669L39,836L269,831Z" fill="#6eb883" stroke="#6eb883"/><path d="M97,669L269,831L271,684Z" fill="#6dbe85" stroke="#6dbe85"/><path d="M271,684L269,831L375,830Z" fill="#64b378" stroke="#64b378"/><path d="M271,684L375,830L418,712Z" fill="#61b87a" stroke="#61b87a"/><path d="M418,712L375,830L508,867Z" fill="#5cad6c" stroke="#5cad6c"/><path d="M418,712L508,867L564,709Z" fill="#56b06d" stroke="#56b06d"/><path d="M564,709L508,867L675,874Z" fill="#4fa460" stroke="#4fa460"/><path d="M564,709L675,874L671,732Z" fill="#4baa62" stroke="#4baa62"/><path d="M671,732L675,874L771,831Z" fill="#45a158" stroke="#45a158"/><path d="M671,732L771,831L800,682Z" fill="#41a95d" stroke="#41a95d"/><path d="M800,682L771,831L1000,772Z" fill="#38a253" stroke="#38a253"/><path d="M800,682L1000,772L923,631Z" fill="#3da95a" stroke="#3da95a"/><path d="M923,631L1000,772L1162,655Z" fill="#34a254" stroke="#34a254"/><path d="M1162,655L1000,772L1066,805Z" fill="#239649" stroke="#239649"/><path d="M1162,655L1066,805L1283,794Z" fill="#198e42" stroke="#198e42"/><path d="M1162,655L1283,794L1266,658Z" fill="#1b9145" stroke="#1b9145"/><path d="M1266,658L1283,794L1379,775Z" fill="#0c863c" stroke="#0c863c"/><path d="M1266,658L1379,775L1431,625Z" fill="#148c40" stroke="#148c40"/><path d="M1431,625L1379,775L1596,660Z" fill="#0c843a" stroke="#0c843a"/><path d="M1596,660L1379,775L1618,856Z" fill="#00732c" stroke="#00732c"/><path d="M1596,660L1618,856L1726,844Z" fill="#006822" stroke="#006822"/><path d="M1596,660L1726,844L1756,616Z" fill="#08712a" stroke="#08712a"/><path d="M1756,616L1726,844L1859,670Z" fill="#076b24" stroke="#076b24"/><path d="M1859,670L1726,844L1862,845Z" fill="#005c18" stroke="#005c18"/><path d="M-55,792L-122,1012L39,836Z" fill="#7aac81" stroke="#7aac81"/><path d="M39,836L-122,1012L64,1008Z" fill="#77a075" stroke="#77a075"/><path d="M39,836L64,1008L269,831Z" fill="#6fa675" stroke="#6fa675"/><path d="M269,831L64,1008L226,1034Z" fill="#6b9a69" stroke="#6b9a69"/><path d="M269,831L226,1034L394,943Z" fill="#659b64" stroke="#659b64"/><path d="M269,831L394,943L375,830Z" fill="#62a469" stroke="#62a469"/><path d="M375,830L394,943L508,867Z" fill="#5ca163" stroke="#5ca163"/><path d="M508,867L394,943L516,979Z" fill="#599759" stroke="#599759"/><path d="M508,867L516,979L675,874Z" fill="#519755" stroke="#519755"/><path d="M675,874L516,979L718,991Z" fill="#4b8e4a" stroke="#4b8e4a"/><path d="M675,874L718,991L771,831Z" fill="#44934a" stroke="#44934a"/><path d="M771,831L718,991L869,1017Z" fill="#3e893f" stroke="#3e893f"/><path d="M771,831L869,1017L1022,920Z" fill="#35863c" stroke="#35863c"/><path d="M771,831L1022,920L1000,772Z" fill="#319144" stroke="#319144"/><path d="M1000,772L1022,920L1066,805Z" fill="#278b40" stroke="#278b40"/><path d="M1066,805L1022,920L1264,987Z" fill="#1f7a31" stroke="#1f7a31"/><path d="M1066,805L1264,987L1283,794Z" fill="#167a31" stroke="#167a31"/><path d="M1283,794L1264,987L1386,928Z" fill="#0c6c26" stroke="#0c6c26"/><path d="M1283,794L1386,928L1379,775Z" fill="#08752d" stroke="#08752d"/><path d="M1379,775L1386,928L1618,856Z" fill="#006a24" stroke="#006a24"/><path d="M1618,856L1386,928L1594,996Z" fill="#005a15" stroke="#005a15"/><path d="M1618,856L1594,996L1681,979Z" fill="#00510d" stroke="#00510d"/><path d="M1618,856L1681,979L1726,844Z" fill="#005612" stroke="#005612"/><path d="M1726,844L1681,979L1858,989Z" fill="#004907" stroke="#004907"/><path d="M1726,844L1858,989L1862,845Z" fill="#004c09" stroke="#004c09"/><path d="M-122,1012L226,1034L64,1008Z" fill="#739471" stroke="#739471"/><path d="M226,1034L1093,1027L869,1017Z" fill="#437e43" stroke="#437e43"/><path d="M226,1034L869,1017L718,991Z" fill="#4d854c" stroke="#4d854c"/><path d="M226,1034L718,991L516,979Z" fill="#578b55" stroke="#578b55"/><path d="M226,1034L516,979L394,943Z" fill="#60925c" stroke="#60925c"/><path d="M869,1017L1093,1027L1022,920Z" fill="#2a7532" stroke="#2a7532"/><path d="M1022,920L1093,1027L1264,987Z" fill="#1e6e2a" stroke="#1e6e2a"/><path d="M1093,1027L1858,989L1594,996Z" fill="#004f13" stroke="#004f13"/><path d="M1093,1027L1594,996L1264,987Z" fill="#0b5d1f" stroke="#0b5d1f"/><path d="M1264,987L1594,996L1386,928Z" fill="#025b19" stroke="#025b19"/><path d="M1594,996L1858,989L1681,979Z" fill="#004408" stroke="#004408"/></g></svg>